ffmpeg version N-73165-gf1e1730 Copyright (c) 2000-2015 the FFmpeg developers
  built with gcc 4.9.2 (GCC)
  configuration: --enable-gpl --enable-version3 --disable-w32threads --enable-avisynth --enable-bzlib --enable-fontconfig --enable-frei0r --enable-gnutls --enable-iconv --enable-libass --enable-libbluray --enable-libbs2b --enable-libcaca --enable-libdcadec --enable-libfreetype --enable-libgme --enable-libgsm --enable-libilbc --enable-libmodplug --enable-libmp3lame --enable-libopencore-amrnb --enable-libopencore-amrwb --enable-libopenjpeg --enable-libopus --enable-librtmp --enable-libschroedinger --enable-libsoxr --enable-libspeex --enable-libtheora --enable-libtwolame --enable-libvidstab --enable-libvo-aacenc --enable-libvo-amrwbenc --enable-libvorbis --enable-libvpx --enable-libwavpack --enable-libwebp --enable-libx264 --enable-libx265 --enable-libxavs --enable-libxvid --enable-lzma --enable-decklink --enable-zlib
  libavutil      54. 27.100 / 54. 27.100
  libavcodec     56. 45.100 / 56. 45.100
  libavformat    56. 38.102 / 56. 38.102
  libavdevice    56.  4.100 / 56.  4.100
  libavfilter     5. 18.100 /  5. 18.100
  libswscale      3.  1.101 /  3.  1.101
  libswresample   1.  2.100 /  1.  2.100
  libpostproc    53.  3.100 / 53.  3.100
Input #0, rawvideo, from 'pipe:':
  Duration: N/A, start: 0.000000, bitrate: 165888 kb/s
    Stream #0:0: Video: rawvideo (RGB[24] / 0x18424752), rgb24, 640x360, 165888 kb/s, 30 tbr, 30 tbn, 30 tbc
[libx264 @ 000000000301bfe0] using cpu capabilities: MMX2 SSE2Fast SSSE3 SSE4.2 AVX FMA3 AVX2 LZCNT BMI2
[libx264 @ 000000000301bfe0] profile High, level 3.0
[libx264 @ 000000000301bfe0] 264 - core 146 r2538 121396c - H.264/MPEG-4 AVC codec - Copyleft 2003-2015 - http://www.videolan.org/x264.html - options: cabac=1 ref=3 deblock=1:0:0 analyse=0x3:0x113 me=hex subme=7 psy=1 psy_rd=1.00:0.00 mixed_ref=1 me_range=16 chroma_me=1 trellis=1 8x8dct=1 cqm=0 deadzone=21,11 fast_pskip=1 chroma_qp_offset=-2 threads=12 lookahead_threads=2 sliced_threads=0 nr=0 decimate=1 interlaced=0 bluray_compat=0 constrained_intra=0 bframes=3 b_pyramid=2 b_adapt=1 b_bias=0 direct=1 weightb=1 open_gop=0 weightp=2 keyint=250 keyint_min=25 scenecut=40 intra_refresh=0 rc_lookahead=40 rc=crf mbtree=1 crf=15.0 qcomp=0.60 qpmin=0 qpmax=69 qpstep=4 ip_ratio=1.40 aq=1:1.00
Output #0, mp4, to 'C:\Users\Jonghwa\Documents\GitHub\2015RnE\ARDroneForRnE_For_Success\20151027210822.mp4':
  Metadata:
    comment         : Exported using VideoExport for Processing - https://github.com/hamoid/VideoExport-for-Processing
    encoder         : Lavf56.38.102
    Stream #0:0: Video: h264 (libx264) ([33][0][0][0] / 0x0021), yuv420p, 640x360, q=-1--1, 30 fps, 15360 tbn, 30 tbc
    Metadata:
      encoder         : Lavc56.45.100 libx264
Stream mapping:
  Stream #0:0 -> #0:0 (rawvideo (native) -> h264 (libx264))
frame=   17 fps=0.0 q=0.0 size=       0kB time=00:00:00.00 bitrate=N/A    frame=   34 fps= 33 q=0.0 size=       0kB time=00:00:00.00 bitrate=N/A    frame=   51 fps= 33 q=0.0 size=       0kB time=00:00:00.00 bitrate=N/A    frame=   72 fps= 35 q=21.0 size=     171kB time=00:00:00.46 bitrate=2994.3kbits/s    frame=   91 fps= 36 q=21.0 size=     309kB time=00:00:01.10 bitrate=2300.4kbits/s    frame=  108 fps= 35 q=21.0 size=     430kB time=00:00:01.66 bitrate=2114.0kbits/s    frame=  126 fps= 35 q=21.0 size=     548kB time=00:00:02.26 bitrate=1981.0kbits/s    frame=  147 fps= 36 q=21.0 size=     686kB time=00:00:02.96 bitrate=1895.3kbits/s    frame=  167 fps= 36 q=21.0 size=     868kB time=00:00:03.63 bitrate=1957.0kbits/s    frame=  190 fps= 37 q=21.0 size=    1035kB time=00:00:04.40 bitrate=1926.9kbits/s    frame=  209 fps= 37 q=21.0 size=    1170kB time=00:00:05.03 bitrate=1904.5kbits/s    frame=  230 fps= 38 q=21.0 size=    1310kB time=00:00:05.73 bitrate=1871.8kbits/s    frame=  251 fps= 38 q=21.0 size=    1459kB time=00:00:06.43 bitrate=1857.6kbits/s    frame=  273 fps= 38 q=21.0 size=    1611kB time=00:00:07.16 bitrate=1840.9kbits/s    frame=  294 fps= 38 q=21.0 size=    1739kB time=00:00:07.86 bitrate=1810.6kbits/s    frame=  315 fps= 39 q=21.0 size=    1949kB time=00:00:08.56 bitrate=1864.0kbits/s    frame=  335 fps= 39 q=21.0 size=    2087kB time=00:00:09.23 bitrate=1851.5kbits/s    frame=  353 fps= 38 q=21.0 size=    2202kB time=00:00:09.83 bitrate=1834.5kbits/s    frame=  371 fps= 38 q=21.0 size=    2336kB time=00:00:10.43 bitrate=1834.1kbits/s    frame=  390 fps= 38 q=21.0 size=    2461kB time=00:00:11.06 bitrate=1821.6kbits/s    frame=  409 fps= 38 q=21.0 size=    2604kB time=00:00:11.70 bitrate=1823.2kbits/s    frame=  431 fps= 38 q=21.0 size=    2762kB time=00:00:12.43 bitrate=1819.6kbits/s    frame=  452 fps= 38 q=21.0 size=    2908kB time=00:00:13.13 bitrate=1814.0kbits/s    frame=  475 fps= 39 q=21.0 size=    3073kB time=00:00:13.90 bitrate=1811.0kbits/s    frame=  497 fps= 39 q=21.0 size=    3197kB time=00:00:14.63 bitrate=1789.7kbits/s    frame=  520 fps= 39 q=21.0 size=    3349kB time=00:00:15.40 bitrate=1781.3kbits/s    frame=  540 fps= 39 q=21.0 size=    3465kB time=00:00:16.06 bitrate=1766.5kbits/s    frame=  559 fps= 39 q=21.0 size=    3643kB time=00:00:16.70 bitrate=1786.9kbits/s    frame=  578 fps= 39 q=21.0 size=    3747kB time=00:00:17.33 bitrate=1770.8kbits/s    frame=  601 fps= 39 q=21.0 size=    3914kB time=00:00:18.10 bitrate=1771.6kbits/s    frame=  622 fps= 39 q=21.0 size=    4065kB time=00:00:18.80 bitrate=1771.3kbits/s    frame=  644 fps= 39 q=21.0 size=    4206kB time=00:00:19.53 bitrate=1764.1kbits/s    frame=  664 fps= 39 q=21.0 size=    4323kB time=00:00:20.20 bitrate=1753.1kbits/s    frame=  685 fps= 40 q=21.0 size=    4451kB time=00:00:20.90 bitrate=1744.7kbits/s    frame=  705 fps= 40 q=21.0 size=    4597kB time=00:00:21.56 bitrate=1746.2kbits/s    frame=  724 fps= 39 q=21.0 size=    4709kB time=00:00:22.20 bitrate=1737.7kbits/s    frame=  744 fps= 39 q=21.0 size=    4838kB time=00:00:22.86 bitrate=1733.1kbits/s    frame=  765 fps= 40 q=21.0 size=    4964kB time=00:00:23.56 bitrate=1725.7kbits/s    frame=  784 fps= 39 q=21.0 size=    5103kB time=00:00:24.20 bitrate=1727.4kbits/s    frame=  803 fps= 39 q=21.0 size=    5233kB time=00:00:24.83 bitrate=1726.4kbits/s    frame=  826 fps= 40 q=21.0 size=    5425kB time=00:00:25.60 bitrate=1736.0kbits/s    frame=  845 fps= 39 q=21.0 size=    5567kB time=00:00:26.23 bitrate=1738.5kbits/s    frame=  866 fps= 40 q=21.0 size=    5707kB time=00:00:26.93 bitrate=1735.9kbits/s    frame=  885 fps= 40 q=21.0 size=    5815kB time=00:00:27.56 bitrate=1728.0kbits/s    frame=  904 fps= 39 q=21.0 size=    5939kB time=00:00:28.20 bitrate=1725.2kbits/s    frame=  921 fps= 39 q=21.0 size=    6052kB time=00:00:28.76 bitrate=1723.5kbits/s    frame=  942 fps= 39 q=21.0 size=    6187kB time=00:00:29.46 bitrate=1720.1kbits/s    frame=  964 fps= 39 q=21.0 size=    6333kB time=00:00:30.20 bitrate=1717.7kbits/s    frame=  987 fps= 40 q=21.0 size=    6474kB time=00:00:30.96 bitrate=1712.7kbits/s    frame= 1009 fps= 40 q=21.0 size=    6616kB time=00:00:31.70 bitrate=1709.6kbits/s    frame= 1029 fps= 40 q=21.0 size=    6752kB time=00:00:32.36 bitrate=1708.8kbits/s    frame= 1049 fps= 40 q=21.0 size=    6894kB time=00:00:33.03 bitrate=1709.7kbits/s    frame= 1070 fps= 40 q=21.0 size=    7068kB time=00:00:33.73 bitrate=1716.3kbits/s    frame= 1092 fps= 40 q=21.0 size=    7206kB time=00:00:34.46 bitrate=1712.6kbits/s    frame= 1115 fps= 40 q=21.0 size=    7372kB time=00:00:35.23 bitrate=1714.0kbits/s    frame= 1136 fps= 40 q=21.0 size=    7493kB time=00:00:35.93 bitrate=1708.1kbits/s    frame= 1157 fps= 40 q=21.0 size=    7634kB time=00:00:36.63 bitrate=1707.0kbits/s    frame= 1178 fps= 40 q=21.0 size=    7754kB time=00:00:37.33 bitrate=1701.5kbits/s    frame= 1197 fps= 40 q=21.0 size=    7846kB time=00:00:37.96 bitrate=1692.9kbits/s    frame= 1214 fps= 40 q=21.0 size=    7978kB time=00:00:38.53 bitrate=1696.2kbits/s    frame= 1235 fps= 40 q=21.0 size=    8113kB time=00:00:39.23 bitrate=1694.0kbits/s    frame= 1257 fps= 40 q=21.0 size=    8296kB time=00:00:39.96 bitrate=1700.5kbits/s    frame= 1277 fps= 40 q=21.0 size=    8432kB time=00:00:40.63 bitrate=1699.9kbits/s    frame= 1298 fps= 40 q=21.0 size=    8564kB time=00:00:41.33 bitrate=1697.3kbits/s    frame= 1320 fps= 40 q=21.0 size=    8743kB time=00:00:42.06 bitrate=1702.6kbits/s    frame= 1343 fps= 40 q=21.0 size=    8886kB time=00:00:42.83 bitrate=1699.4kbits/s    frame= 1367 fps= 40 q=21.0 size=    9048kB time=00:00:43.63 bitrate=1698.7kbits/s    frame= 1389 fps= 40 q=21.0 size=    9155kB time=00:00:44.36 bitrate=1690.5kbits/s    frame= 1410 fps= 40 q=21.0 size=    9275kB time=00:00:45.06 bitrate=1685.9kbits/s    frame= 1432 fps= 40 q=21.0 size=    9408kB time=00:00:45.80 bitrate=1682.7kbits/s    frame= 1454 fps= 40 q=21.0 size=    9554kB time=00:00:46.53 bitrate=1682.0kbits/s    frame= 1474 fps= 40 q=21.0 size=    9697kB time=00:00:47.20 bitrate=1683.0kbits/s    frame= 1495 fps= 40 q=21.0 size=    9844kB time=00:00:47.90 bitrate=1683.6kbits/s    frame= 1515 fps= 40 q=21.0 size=    9992kB time=00:00:48.56 bitrate=1685.4kbits/s    frame= 1536 fps= 40 q=21.0 size=   10123kB time=00:00:49.26 bitrate=1683.3kbits/s    frame= 1557 fps= 40 q=21.0 size=   10302kB time=00:00:49.96 bitrate=1689.1kbits/s    frame= 1576 fps= 40 q=21.0 size=   10429kB time=00:00:50.60 bitrate=1688.4kbits/s    frame= 1598 fps= 40 q=21.0 size=   10573kB time=00:00:51.33 bitrate=1687.2kbits/s    frame= 1619 fps= 40 q=21.0 size=   10699kB time=00:00:52.03 bitrate=1684.5kbits/s    frame= 1642 fps= 40 q=21.0 size=   10872kB time=00:00:52.80 bitrate=1686.8kbits/s    frame= 1666 fps= 40 q=21.0 size=   10997kB time=00:00:53.60 bitrate=1680.8kbits/s    frame= 1688 fps= 40 q=21.0 size=   11139kB time=00:00:54.33 bitrate=1679.4kbits/s    frame= 1711 fps= 41 q=21.0 size=   11290kB time=00:00:55.10 bitrate=1678.5kbits/s    frame= 1731 fps= 40 q=21.0 size=   11407kB time=00:00:55.76 bitrate=1675.7kbits/s    frame= 1754 fps= 41 q=21.0 size=   11556kB time=00:00:56.53 bitrate=1674.5kbits/s    frame= 1776 fps= 41 q=21.0 size=   11724kB time=00:00:57.26 bitrate=1677.2kbits/s    frame= 1796 fps= 41 q=18.0 size=   11859kB time=00:00:57.93 bitrate=1676.9kbits/s    frame= 1819 fps= 41 q=21.0 size=   12061kB time=00:00:58.70 bitrate=1683.1kbits/s    frame= 1840 fps= 41 q=21.0 size=   12212kB time=00:00:59.40 bitrate=1684.2kbits/s    frame= 1860 fps= 41 q=21.0 size=   12330kB time=00:01:00.06 bitrate=1681.6kbits/s    frame= 1882 fps= 41 q=21.0 size=   12464kB time=00:01:00.80 bitrate=1679.3kbits/s    frame= 1902 fps= 41 q=21.0 size=   12581kB time=00:01:01.46 bitrate=1676.7kbits/s    frame= 1922 fps= 41 q=21.0 size=   12720kB time=00:01:02.13 bitrate=1677.0kbits/s    frame= 1946 fps= 41 q=21.0 size=   12887kB time=00:01:02.93 bitrate=1677.5kbits/s    frame= 1965 fps= 41 q=21.0 size=   13054kB time=00:01:03.56 bitrate=1682.3kbits/s    frame= 1987 fps= 41 q=21.0 size=   13200kB time=00:01:04.30 bitrate=1681.7kbits/s    frame= 2009 fps= 41 q=21.0 size=   13334kB time=00:01:05.03 bitrate=1679.7kbits/s    frame= 2033 fps= 41 q=21.0 size=   13519kB time=00:01:05.83 bitrate=1682.3kbits/s    frame= 2053 fps= 41 q=21.0 size=   13618kB time=00:01:06.50 bitrate=1677.6kbits/s    frame= 2075 fps= 41 q=21.0 size=   13774kB time=00:01:07.23 bitrate=1678.3kbits/s    frame= 2096 fps= 41 q=21.0 size=   13909kB time=00:01:07.93 bitrate=1677.3kbits/s    frame= 2116 fps= 41 q=21.0 size=   14047kB time=00:01:08.60 bitrate=1677.5kbits/s    frame= 2137 fps= 41 q=21.0 size=   14200kB time=00:01:09.30 bitrate=1678.6kbits/s    frame= 2157 fps= 41 q=21.0 size=   14338kB time=00:01:09.96 bitrate=1678.7kbits/s    frame= 2177 fps= 41 q=21.0 size=   14478kB time=00:01:10.63 bitrate=1679.1kbits/s    frame= 2200 fps= 41 q=21.0 size=   14629kB time=00:01:11.40 bitrate=1678.4kbits/s    frame= 2221 fps= 41 q=21.0 size=   14803kB time=00:01:12.10 bitrate=1681.9kbits/s    frame= 2244 fps= 41 q=21.0 size=   14943kB time=00:01:12.86 bitrate=1680.0kbits/s    frame= 2267 fps= 41 q=21.0 size=   15090kB time=00:01:13.63 bitrate=1678.8kbits/s    frame= 2269 fps= 38 q=21.0 size=   15098kB time=00:01:13.70 bitrate=1678.2kbits/s    